<?xml version="1.0" encoding="UTF-8" standalone="no"?>
<!DOCTYPE svg PUBLIC "-//W3C//DTD SVG 1.1//EN"
 "http://www.w3.org/Graphics/SVG/1.1/DTD/svg11.dtd">
<!-- Generated by graphviz version 12.2.1 (20241206.2353)
 -->
<!-- Title: G Pages: 1 -->
<svg width="263pt" height="423pt"
 viewBox="0.00 0.00 263.23 423.40" xmlns="http://www.w3.org/2000/svg" xmlns:xlink="http://www.w3.org/1999/xlink">
<g id="graph0" class="graph" transform="scale(1 1) rotate(0) translate(4 419.4)">
<title>G</title>
<polygon fill="white" stroke="none" points="-4,4 -4,-419.4 259.23,-419.4 259.23,4 -4,4"/>
<!-- initial -->
<g id="node1" class="node">
<title>initial</title>
<ellipse fill="black" stroke="black" cx="113.98" cy="-408.2" rx="7.2" ry="7.2"/>
</g>
<!-- idle -->
<g id="node2" class="node">
<title>idle</title>
<text text-anchor="start" x="102.35" y="-327.2" font-family="Helvetica,sans-Serif" font-weight="bold" font-size="14.00">idle</text>
<path fill="none" stroke="black" d="M106.35,-321.5C106.35,-321.5 121.6,-321.5 121.6,-321.5 125.1,-321.5 128.6,-325 128.6,-328.5 128.6,-328.5 128.6,-335.5 128.6,-335.5 128.6,-339 125.1,-342.5 121.6,-342.5 121.6,-342.5 106.35,-342.5 106.35,-342.5 102.85,-342.5 99.35,-339 99.35,-335.5 99.35,-335.5 99.35,-328.5 99.35,-328.5 99.35,-325 102.85,-321.5 106.35,-321.5"/>
</g>
<!-- initial&#45;&gt;idle -->
<g id="edge1" class="edge">
<title>initial&#45;&gt;idle</title>
<path fill="none" stroke="black" d="M113.98,-400.62C113.98,-391.8 113.98,-375.62 113.98,-361.3"/>
<polygon fill="black" stroke="black" points="117.48,-361.42 113.98,-351.42 110.48,-361.42 117.48,-361.42"/>
<text text-anchor="middle" x="115.85" y="-369.7" font-family="Helvetica,sans-Serif" font-size="14.00"> </text>
</g>
<!-- reserved -->
<g id="node3" class="node">
<title>reserved</title>
<text text-anchor="start" x="35.85" y="-247.7" font-family="Helvetica,sans-Serif" font-weight="bold" font-size="14.00">reserved</text>
<text text-anchor="start" x="16.35" y="-227.7" font-family="Helvetica,sans-Serif" font-size="14.00">entry / reserve()</text>
<text text-anchor="start" x="13.35" y="-212.7" font-family="Helvetica,sans-Serif" font-size="14.00">exit / unreserve()</text>
<polygon fill="black" stroke="black" points="10.35,-243 10.35,-243 117.6,-243 117.6,-243 10.35,-243"/>
<path fill="none" stroke="black" d="M22.35,-208C22.35,-208 105.6,-208 105.6,-208 111.6,-208 117.6,-214 117.6,-220 117.6,-220 117.6,-251 117.6,-251 117.6,-257 111.6,-263 105.6,-263 105.6,-263 22.35,-263 22.35,-263 16.35,-263 10.35,-257 10.35,-251 10.35,-251 10.35,-220 10.35,-220 10.35,-214 16.35,-208 22.35,-208"/>
</g>
<!-- idle&#45;&gt;reserved -->
<g id="edge2" class="edge">
<title>idle&#45;&gt;reserved</title>
<path fill="none" stroke="black" d="M87.22,-330.83C61.26,-329.05 23.11,-321.84 4.23,-296 -2.19,-287.22 0.15,-278.53 6.69,-270.62"/>
<polygon fill="black" stroke="black" points="8.71,-273.54 13.39,-264.04 3.8,-268.55 8.71,-273.54"/>
<text text-anchor="middle" x="28.6" y="-282.7" font-family="Helvetica,sans-Serif" font-size="14.00"> reserve</text>
</g>
<!-- unlocked -->
<g id="node4" class="node">
<title>unlocked</title>
<text text-anchor="start" x="124.35" y="-119.2" font-family="Helvetica,sans-Serif" font-weight="bold" font-size="14.00">unlocked</text>
<path fill="none" stroke="black" d="M128.35,-113.5C128.35,-113.5 179.6,-113.5 179.6,-113.5 183.1,-113.5 186.6,-117 186.6,-120.5 186.6,-120.5 186.6,-127.5 186.6,-127.5 186.6,-131 183.1,-134.5 179.6,-134.5 179.6,-134.5 128.35,-134.5 128.35,-134.5 124.85,-134.5 121.35,-131 121.35,-127.5 121.35,-127.5 121.35,-120.5 121.35,-120.5 121.35,-117 124.85,-113.5 128.35,-113.5"/>
</g>
<!-- idle&#45;&gt;unlocked -->
<g id="edge5" class="edge">
<title>idle&#45;&gt;unlocked</title>
<path fill="none" stroke="black" d="M129.29,-314.34C133.47,-308.87 137.52,-302.52 139.98,-296 158.01,-248.13 158.15,-187.52 156.29,-152.82"/>
<polygon fill="black" stroke="black" points="159.8,-152.95 155.67,-143.19 152.82,-153.4 159.8,-152.95"/>
<text text-anchor="middle" x="182.13" y="-237.2" font-family="Helvetica,sans-Serif" font-size="14.00"> unlock /</text>
<text text-anchor="middle" x="182.13" y="-222.2" font-family="Helvetica,sans-Serif" font-size="14.00">unlock();</text>
</g>
<!-- reserved&#45;&gt;idle -->
<g id="edge3" class="edge">
<title>reserved&#45;&gt;idle</title>
<path fill="none" stroke="black" d="M65.87,-262.92C67.52,-273.71 70.58,-285.98 76.23,-296 78.17,-299.45 80.58,-302.76 83.22,-305.87"/>
<polygon fill="black" stroke="black" points="80.62,-308.21 90.08,-312.97 85.65,-303.34 80.62,-308.21"/>
<text text-anchor="middle" x="108.1" y="-282.7" font-family="Helvetica,sans-Serif" font-size="14.00"> unreserve</text>
</g>
<!-- reserved&#45;&gt;unlocked -->
<g id="edge4" class="edge">
<title>reserved&#45;&gt;unlocked</title>
<path fill="none" stroke="black" d="M67.48,-208.32C70.69,-192.84 76.77,-173.65 88.23,-160 94.5,-152.52 102.79,-146.41 111.36,-141.51"/>
<polygon fill="black" stroke="black" points="112.82,-144.7 120.1,-137 109.61,-138.48 112.82,-144.7"/>
<text text-anchor="middle" x="114.1" y="-176.7" font-family="Helvetica,sans-Serif" font-size="14.00"> unlock /</text>
<text text-anchor="middle" x="114.1" y="-161.7" font-family="Helvetica,sans-Serif" font-size="14.00">unlock();</text>
</g>
<!-- unlocked&#45;&gt;idle -->
<g id="edge6" class="edge">
<title>unlocked&#45;&gt;idle</title>
<path fill="none" stroke="black" d="M170.81,-141.99C194.91,-168.45 234.03,-220.86 211.98,-263 199.13,-287.55 172.94,-305.02 150.86,-316.09"/>
<polygon fill="black" stroke="black" points="149.66,-312.79 142.12,-320.23 152.66,-319.12 149.66,-312.79"/>
<text text-anchor="middle" x="236.85" y="-237.2" font-family="Helvetica,sans-Serif" font-size="14.00"> lock /</text>
<text text-anchor="middle" x="236.85" y="-222.2" font-family="Helvetica,sans-Serif" font-size="14.00">lock();</text>
</g>
<!-- driving -->
<g id="node5" class="node">
<title>driving</title>
<text text-anchor="start" x="131.48" y="-39.7" font-family="Helvetica,sans-Serif" font-weight="bold" font-size="14.00">driving</text>
<text text-anchor="start" x="111.98" y="-19.7" font-family="Helvetica,sans-Serif" font-size="14.00">entry / move()</text>
<text text-anchor="start" x="120.6" y="-4.7" font-family="Helvetica,sans-Serif" font-size="14.00">exit / stop()</text>
<polygon fill="black" stroke="black" points="108.98,-35 108.98,-35 198.98,-35 198.98,-35 108.98,-35"/>
<path fill="none" stroke="black" d="M120.98,0C120.98,0 186.98,0 186.98,0 192.98,0 198.98,-6 198.98,-12 198.98,-12 198.98,-43 198.98,-43 198.98,-49 192.98,-55 186.98,-55 186.98,-55 120.98,-55 120.98,-55 114.98,-55 108.98,-49 108.98,-43 108.98,-43 108.98,-12 108.98,-12 108.98,-6 114.98,0 120.98,0"/>
</g>
<!-- unlocked&#45;&gt;driving -->
<g id="edge7" class="edge">
<title>unlocked&#45;&gt;driving</title>
<path fill="none" stroke="black" d="M140.41,-106.16C136.78,-100.69 133.35,-94.38 131.48,-88 129.3,-80.6 129.99,-72.8 132.14,-65.38"/>
<polygon fill="black" stroke="black" points="135.32,-66.87 135.63,-56.28 128.78,-64.36 135.32,-66.87"/>
<text text-anchor="middle" x="144.23" y="-74.7" font-family="Helvetica,sans-Serif" font-size="14.00"> gas</text>
</g>
<!-- driving&#45;&gt;unlocked -->
<g id="edge8" class="edge">
<title>driving&#45;&gt;unlocked</title>
<path fill="none" stroke="black" d="M156.36,-54.86C157.02,-65.19 157.44,-77.15 156.98,-88 156.88,-90.24 156.75,-92.56 156.6,-94.88"/>
<polygon fill="black" stroke="black" points="153.11,-94.53 155.82,-104.78 160.09,-95.08 153.11,-94.53"/>
<text text-anchor="middle" x="181.17" y="-74.7" font-family="Helvetica,sans-Serif" font-size="14.00"> release</text>
</g>
</g>
</svg>
