<?xml version="1.0" encoding="UTF-8" standalone="no"?>
<!DOCTYPE svg PUBLIC "-//W3C//DTD SVG 1.1//EN"
 "http://www.w3.org/Graphics/SVG/1.1/DTD/svg11.dtd">
<!-- Generated by graphviz version 2.43.0 (0)
 -->
<!-- Title: G Pages: 1 -->
<svg width="220pt" height="128pt"
 viewBox="0.00 0.00 220.00 128.40" xmlns="http://www.w3.org/2000/svg" xmlns:xlink="http://www.w3.org/1999/xlink">
<g id="graph0" class="graph" transform="scale(1 1) rotate(0) translate(4 124.4)">
<title>G</title>
<polygon fill="white" stroke="transparent" points="-4,4 -4,-124.4 216,-124.4 216,4 -4,4"/>
<!-- initial -->
<g id="node1" class="node">
<title>initial</title>
<ellipse fill="black" stroke="black" cx="92" cy="-113.2" rx="7.2" ry="7.2"/>
</g>
<!-- moving -->
<g id="node2" class="node">
<title>moving</title>
<text text-anchor="start" x="63" y="-41.3" font-family="Helvetica,sans-Serif" font-weight="bold" font-size="14.00">moving</text>
<text text-anchor="start" x="9" y="-21.3" font-family="Helvetica,sans-Serif" font-size="14.00">entry / update_display()</text>
<text text-anchor="start" x="3" y="-6.3" font-family="Helvetica,sans-Serif" font-size="14.00">entry / start_timer(t, 500)</text>
<polygon fill="black" stroke="black" points="0,-34.5 0,-34.5 184,-34.5 184,-34.5 0,-34.5"/>
<path fill="none" stroke="black" d="M12,0C12,0 172,0 172,0 178,0 184,-6 184,-12 184,-12 184,-43 184,-43 184,-49 178,-55 172,-55 172,-55 12,-55 12,-55 6,-55 0,-49 0,-43 0,-43 0,-12 0,-12 0,-6 6,0 12,0"/>
</g>
<!-- initial&#45;&gt;moving -->
<g id="edge1" class="edge">
<title>initial&#45;&gt;moving</title>
<path fill="none" stroke="black" d="M92,-105.91C92,-97.26 92,-81.01 92,-65.63"/>
<polygon fill="black" stroke="black" points="95.5,-65.22 92,-55.22 88.5,-65.22 95.5,-65.22"/>
<text text-anchor="middle" x="94.5" y="-76.8" font-family="Helvetica,sans-Serif" font-size="14.00"> </text>
</g>
<!-- moving&#45;&gt;moving -->
<g id="edge2" class="edge">
<title>moving&#45;&gt;moving</title>
<path fill="none" stroke="black" d="M184.28,-35.82C195.02,-34.29 202,-31.51 202,-27.5 202,-24.93 199.13,-22.87 194.25,-21.31"/>
<polygon fill="black" stroke="black" points="194.79,-17.85 184.28,-19.18 193.33,-24.7 194.79,-17.85"/>
<text text-anchor="middle" x="207" y="-23.8" font-family="Helvetica,sans-Serif" font-size="14.00"> t</text>
</g>
</g>
</svg>
